<svg xmlns="http://www.w3.org/2000/svg" viewBox="0 0 273 375"><path d="M2 2h269v284c-2.733 76.758-108.835 41.517-132.821 84C122.733 329.449 3.436 360.346 2 286V2z" style="fill-rule:evenodd;fill:#fff;stroke:#000;stroke-width:4px"/><path d="M22.457 68.107h-.731c0-5.08 1.4-9.547 1.4-13.664a21.609 21.609 0 0 1 2.282.175c-.351-.7-1.229-1.226-1.931-2.628a53.475 53.475 0 0 1 .527-9.109 10.552 10.552 0 0 1-3.95-.876v-1.751c.878-.438 1.756-.788 2.633-1.138l.264-.788c6.743 1.278 15.4.9 23.214 1.039l.053-.054c1.485 0 2.228-.741 1.485 0l.742-.741c1.485 0 2.228-.741 2.971-.741h2.228c2.971 0 3.713.741 1.485 0 1.485 0 2.228.741 1.485 0l.743.741h1.5c1.416-.511 2.858-1.01 4.3-1.47.351.175.7.351 1.141.613a6.177 6.177 0 0 0 .088 1.226 7.9 7.9 0 0 0-.878.788c6.934.613 6.934.613 9.655.35 1.053-1.579 7.811-.879 10.708-.879 3.335-2.8 5.179-4.2 10.8-2.365.175.7.351 1.489.527 2.278l.79.263v.7c11.323.263 11.323.263 13.693.613a6.01 6.01 0 0 0 .351.876 2.172 2.172 0 0 0 1.931-.438 1.253 1.253 0 0 1 .527.175c2.808 2.1 5.7 5.431 10.182 5.956.351-3.854-.878-3.767-1.756-5.781a10.138 10.138 0 0 0 1.8.074v-.76l.743-.741h5.941l.742.741h15.6l.742.741h.289q-.376-.463-.75-.933a16.906 16.906 0 0 1 5.969-.526c.088.876-.351 1.139.79 2.278a26.465 26.465 0 0 1 2.721-1.4c1.053-4.905 12.2-2.715 16.5-1.4 7.022.351 7.022.351 8.953.876v.873h3.511v-.7h1.4v.7c1.756-.175 1.756-.175 4.389-1.226 5.354 0 11.148 1.4 17.379 1.664.7 1.139.79 1.489 3.161 1.752a120.488 120.488 0 0 1 14.746-1.051c.176.876.351 1.84.614 2.8 1.931.876 2.458 1.664 3.073 1.84a3.535 3.535 0 0 0 .438-2.19c-.438-.263-.79-.438-1.141-.613a9.721 9.721 0 0 1-.175-1.577h3.16v-.7c2.984.438 2.984.438 13.429.438 2.458-1.664 4.038.526 6.671.263l.264-2.1h2.457c.351.7.79 1.4 1.229 2.1 0 7.095-.614 13.839-.439 21.459a7.638 7.638 0 0 0-1.492.613v1.058h.7v1.752h-.7v1.051h.7l.527 7.357c-.79.263-1.58.613-2.37.964.088 4.117-.614 6.919 1.141 11.3h.7c.351 1.226.351 1.226.351 7.883-1.316 0-2.633 0-3.95.088-.175 5.518-1.492 6.044 3.6 10.073.79 3.942 0 8.321.351 13.138h-1.053v1.577c2.37 1.577.088 2.8-.526 5.43a30.6 30.6 0 0 1-5.443 2.628 5.2 5.2 0 0 0-.175 1.226c1.755 1.139 2.809 2.8 3.686 3.154.176 2.365-.614 4.467 1.668 6.744.088 1.314.088 9.022 1.141 10.073a3.081 3.081 0 0 1-1.4 2.8c-.351 0-.351 0-.351 1.4h2.106v1.4c-.526.35-.965.7-1.4 1.051a15.942 15.942 0 0 0-1.843.7c.043.521.086 1.041.14 1.562a.812.812 0 0 0 .708.178l.743.741v1.556l.252.168.263 2.627c-.175.044-.351.088-.515.143v7.364l-.743.74c0 .742 0 1.483-.743 1.483 0 .741 0 1.482-.742 1.482v2.223l-.743.741v10.375l.743 1.482v3.705l.742.742c0 .74.743 1.481.743 2.223v2.964l.743.741v11.861l-.743.741a5.881 5.881 0 0 1-.029.716 1.9 1.9 0 0 1 .673-.321c.527 4.292 1.492 16.642-.439 20.5 1.4 2.89.614 12.7.614 16.817-2.106 4.292.966 8.146.615 13.751-2.546 2.19-5.355 3.241-8.163 1.752-3.336 3.329-6.408-.175-8.866-.175a7.756 7.756 0 0 0-.526.876c-5.267 1.4-4.214-.438-7.2-1.226a13.422 13.422 0 0 0-1.492 1.664c-5.793 0-11.587.087-17.38.175-3.034-.159-6-.319-8.951-.479l-.1.051h-2.971l-.742.741h-4.456l-1.485.741h-4.61c-.245.154-.49.339-.735.523a15.465 15.465 0 0 0-1.756-.351c-2.721-4.116-18.7.263-21.944-4.642a88.452 88.452 0 0 0-10.533 1.314v1.4c-8.777.526-8.777.526-21.768.526-1.405-.35-1.405-.35-10.533-.175a7.929 7.929 0 0 1-3.511 0c-2.139-.138-4.278-.276-6.374-.414-2.9.212-5.836.336-8.838.336 0-1.482-3.713 0-3.713-1.482h-.183c-.134.314-.262.6-.383.859l-.527.526c-4.389.087-12.64-1.314-15.273.35-9.568.263-26.069.087-28.352.438-5.179-.351-11.762-.263-15.887-2.015-5.793 2.54-10.445 2.54-14.922.351 0-1.752 0-2.365-.79-2.891.527-4.379 1.755-5.08.088-9.2l1.843-1.051a23.466 23.466 0 0 0-.351-7.971 1.578 1.578 0 0 1 .614-.438c0-2.978.351-5.868.088-8.5l-.79-.262v-1.051c4.477-.789 5.53-5.343 7.2-8.759 1.668.175 3.336.438 5.091.7-.088-2.014-.088-2.014.351-2.715-1.229.088-2.37.175-3.511.35-.088-.788-.175-1.489-.263-2.189-1.141.087-3.95-1.227-4.74-1.139a24.089 24.089 0 0 0-1.492 2.54 9.8 9.8 0 0 0-1.668.175l-.263-24.875v-9.46c-.176-3.5-1.053-5.956-1.053-8.846 2.107-2.628.966-7.621 1.317-10.423l.887-.254c-.311-3.006-.038-2.7.108-.031l.042-.012c-.138-3.02-.587-3.62.006 0l.03-.009c-.032-2.83-.724-4.18 0-1.283 0-1.482-.743-2.964 0-1.482l-.742-1.479v-2.223c0-2.223-.742-2.964 0-1.482 0-.741-.742-1.482-.742-2.224v-2.964c0-3.7.742-4.446 0-1.482 0-2.223.742-2.964 0-1.482 0-.741.742-1.482.742-2.223l-.742-1.482v-4.447c0-5.928.742-7.41 0-1.482 0-4.446.742-5.928 0-1.482 0-2.964.742-4.446 0-1.482 0-1.482.742-2.964 0-1.482l.742-1.482v-4.447c-.742-5.187-1.485-6.669 0-1.482-.742-3.705-1.485-5.187 0-1.482-.742-2.223-1.485-3.7 0-1.482-.742-.741-1.485-2.223-2.228-2.964 0-.741-.743-1.482-.743-2.223V100.82c0-2.965-.743-3.706 0-1.482 0-1.482-.743-2.223 0-1.482l-.743-.741v-2.224c0-1.482-.742-2.965 0-1.482l-.742-1.482v-3.705c0-.742-.744-2.222-.744-3.706l.742-1.482s1.485-1.482 1.485-2.223l.743-1.482v-2.223l.742-1.482V73.4c0-2.964.743-3.705 0-1.482 0-1.482.743-2.223 0-1.482l.743-.741v-1.588zm9.275 152.756c1.053-.7 1.755-3.066 2.107-4.2h.878c.176-.876.176-.876-.175-2.978-2.019 1.313-5.354 3.766-5.354 6.131.79.35 1.668.7 2.546 1.051zm-4.74 17.343a5.168 5.168 0 0 1 1.229-.176v-1.4a17.531 17.531 0 0 0-2.107-.35 3.294 3.294 0 0 0 .878 1.926z" style="fill:#0094d9;fill-rule:evenodd"/><path d="M253.686 180.575v.175c2.2 9.562 9.312 24.914.528 33.686a.979.979 0 0 0-.528.228c-7.555 6.667-15.988 7.141-24.422 4.158l.264-3.158c1.493-.263 1.493-.263 8.258.615 4.832-.7 11.684-1.141 15.549-5a46.032 46.032 0 0 0-1.406-9.474c-.439-2.1-.878-4.211-1.23-6.316H250c-1.23-6.053-2.811-12.983-4.832-17.984l-.79-.263c-.967-2.9-.528-3.6 0-5.7a6.032 6.032 0 0 1 .7-.263c.7-2.632.791-3.772.088-5.263L227.507 149.7c-.351-4.825-.527-26.932-5.973-30.528a10.2 10.2 0 0 1-.352-1.579c3.778-.351 5.184 1.491 6.677 5.614h.7c2.02 7.369 2.723 15.176 4.919 23.159.527.176 6.94 7.457 8.785 9.124 2.987 1.666 10.893 4.824 11.6 9.825a5.6 5.6 0 0 0-.7 1.228c-1.848 5.522-.882 7.365.523 14.032zM234.473 29.784v-.447h.619a2.592 2.592 0 0 0 1.168-.28 1.053 1.053 0 0 0 .563-.579 5.493 5.493 0 0 0 .145-1.587V16.229a3.336 3.336 0 0 0-.335-1.924 2.06 2.06 0 0 0-1.541-.484h-.619v-.45h13.453l.192 3.593h-.5a5.351 5.351 0 0 0-.6-1.775 2.036 2.036 0 0 0-.972-.74 6.22 6.22 0 0 0-1.814-.181h-4.789v6.485h3.837a3.291 3.291 0 0 0 1.994-.421 2.637 2.637 0 0 0 .746-1.962h.474v5.713h-.474a5.948 5.948 0 0 0-.361-1.536 1.566 1.566 0 0 0-.758-.666 4.108 4.108 0 0 0-1.621-.244h-3.837v5.41a4.895 4.895 0 0 0 .1 1.327.8.8 0 0 0 .361.376 2.377 2.377 0 0 0 .979.136h2.962a8.32 8.32 0 0 0 2.149-.195 3.19 3.19 0 0 0 1.285-.759 9.322 9.322 0 0 0 1.635-2.263h.515l-1.5 4.114h-13.456zm-19.714 0h-7.8v-.447h.654a1.766 1.766 0 0 0 1.569-.669 3.569 3.569 0 0 0 .285-1.788v-10.6a3.23 3.23 0 0 0-.359-1.921 1.96 1.96 0 0 0-1.5-.533h-.654v-.45h7.1a16.519 16.519 0 0 1 5.952.834 7 7 0 0 1 3.294 2.78 8.229 8.229 0 0 1 1.243 4.5 7.925 7.925 0 0 1-2.214 5.726q-2.484 2.567-7.57 2.568zm4.876-13.529a6.845 6.845 0 0 0-5.056-1.962 11.527 11.527 0 0 0-2.64.351V28.6a13.8 13.8 0 0 0 2.741.34 6.705 6.705 0 0 0 4.955-1.975 7.23 7.23 0 0 0 1.973-5.35 7.216 7.216 0 0 0-1.973-5.36zm-28.7 13.082a2.727 2.727 0 0 0 1.412-.329.82.82 0 0 0 .368-.678 4.829 4.829 0 0 0-.519-1.682l-1.053-2.359h-6.758l-1.181 2.591a3.841 3.841 0 0 0-.44 1.428.819.819 0 0 0 .378.656 3.484 3.484 0 0 0 1.643.372v.447h-5.5v-.446a3.083 3.083 0 0 0 1.416-.475 7.258 7.258 0 0 0 1.454-2.357L188.3 13h.448l6.076 13.648a6.076 6.076 0 0 0 1.332 2.136 2.829 2.829 0 0 0 1.669.553v.447h-6.89v-.447zm-3.115-12.574l-3.035 6.63h6zm26.771 98.282c5.359 3.947 7.467 6.4 8.345 6.754 1.494 4.036-1.054 7.194-5.446 6.492-7.555-6.579-13.7-11.667-21.787-15.79-15.2-4.474-26.618-1.4-39.883 6.4-3.25 3.947-9.4 9.737-10.19 14.825h-.7c-4.305 10-7.819 19.738-9.224 31.142.176 7.544.351 15.089.615 22.633 1.493 0 6.588-.877 7.379 1.316-2.723 0-4.568.877-6.852.965-1.142 13.422 7.467 35.177 12.474 47.985-.088 2.281-.088 2.281-.7 3.334-5.973.526-13.353-2.369-18.448-3.51-1.23-4.912-3.338-9.123-4.568-13.246a16.329 16.329 0 0 0-.878 2.193c-2.46 11.931-7.38 23.335-12.123 34.914l-.791.264a101.558 101.558 0 0 0-2.723 5.351v.7a.683.683 0 0 0-.352.35 51.83 51.83 0 0 0-1.757 3.86c-2.987.965-3.25 7.9-6.5 9.475a41.608 41.608 0 0 1-8.784 8.772h-4.221a8.07 8.07 0 0 1-2.635-3.158 2.564 2.564 0 0 0-.791-.176c-.264-.965-.527-1.929-.7-2.807 4.129-2.982 11.684-11.492 13.792-15.966l.527-.526c.878-1.842 2.108-5.614 3.69-6.141 1.581-3.333 3.25-6.579 4.919-9.825h.7c1.582-3.158 3.25-6.316 4.92-9.474h.7c.878-1.93 4.129-11.053 5.622-11.053 2.284-8.071 3.426-14.3 4.217-16.141h1.317c-.087-1.755-.087-1.755-1.23-5.176a4.872 4.872 0 0 1 .615-.79c-1.317-7.105-1.405-14.123-1.669-20.264a232.405 232.405 0 0 1-35.051-15.878c-.791-.965-8.082-5.439-9.224-6.579-7.116-4.913-18.185-13.247-22.314-20.177-1.054-2.982-1.933-5.877-3.865-7.018-4.129-7.895-6.062-15.615-7.907-23.335-1.054-19.3 13.7-18.86 29.166-21.053 2.02-.438 6.676-.526 6.237-3.948C73.245 83.2 67.272 78.727 71.4 69.428c11.245-11.229 30.659-4.123 44.012-.439 7.643.526 17.394 6.843 26 5.614 0-3.948-2.811-5.7-2.372-8.773-1.406-2.281-3.338-4.211-3.6-5.79 5.974-.7 9.751 9.737 12.65 14.738a8.037 8.037 0 0 0 2.811-2.632c-1.317-5.527-6.5-10.7-9.4-14.3-8.346-8.422-10.806-11.58-15.725-16.4v-.353c-2.108-2.456-2.108-2.456-2.987-2.807-3.969-7.266.43-9.486 6.088-8.994a1.58 1.58 0 0 0 1.062-.633 3.73 3.73 0 0 0 .268-1.792V16.275a3.187 3.187 0 0 0-.361-1.921 1.948 1.948 0 0 0-1.49-.533h-.656v-.45h7.9v.45a5.1 5.1 0 0 0-1.95.24 1.521 1.521 0 0 0-.763.643 4.974 4.974 0 0 0-.207 1.851v10.312a3.18 3.18 0 0 0 .207 1.38.9.9 0 0 0 .474.375 9.033 9.033 0 0 0 2.008.12h1.274a9.757 9.757 0 0 0 2.819-.277 3.714 3.714 0 0 0 1.482-.987 8.055 8.055 0 0 0 1.336-2.236l.426.087-1.5 4.453h-9.3c.122.029.244.05.367.081a3.252 3.252 0 0 0-.967.439c4.832 2.807 14.671 9.562 15.374 10.439a3.875 3.875 0 0 1 .878.175c9.576 12.018 20.293 20.966 14.583 38.073h-.7c-2.459 6.316-3.162 7.106-9.927 10.264-.351 7.544 2.987 10.965 9.049 16.4 4.656 2.281 12.211-1.667 17.745-2.632h10.366c8.614 1.848 17.574 7.199 25.92 12.024zm-70.455-14.563c.264-4.3-.79-7.982-1.23-11.4-7.115-2.544-14.231-5-21.347-7.457-7.991-5.354-33.204-12.986-42.779-9.825 0 1.842 5.271 6.579 7.379 8.685 3.426 8.685 4.656 19.387-6.589 22.195 0 .35-10.19.35-10.19 0-7.731-.439-18.009-2.544-18.712 7.281.7 3.158 3.514 16.93 6.764 18.509 3.69 7.457 9.751 19.651 17.394 25.967 7.994 10.615 24.158 19.475 36.545 26.142 7.2 2.632 7.2 2.632 9.4 3.947q.4-2.236.791-4.474c-.615-9.649 2.2-18.948 4.041-27.721a59.874 59.874 0 0 0 2.811-11.228h.7c3.6-10.176 11.684-19.212 19.151-26.668 3.163-2.369 5.623-3.685 5.974-4.3-3.423-2.547-9.133-6.582-10.1-9.653zm-14.67 12.545a12.685 12.685 0 0 1-1.142-.789c.614-5.79 11.947-13.861 16.076-7.632-.788 6.316-10.188 7.544-14.931 8.421zm30.444-83.243h-7.8v-.447h.654a1.768 1.768 0 0 0 1.569-.669 3.572 3.572 0 0 0 .284-1.788v-10.6a3.23 3.23 0 0 0-.359-1.921 1.961 1.961 0 0 0-1.494-.533h-.654v-.45h7.1a16.526 16.526 0 0 1 5.952.834 6.991 6.991 0 0 1 3.281 2.785 8.221 8.221 0 0 1 1.243 4.5 7.929 7.929 0 0 1-2.213 5.726q-2.473 2.562-7.56 2.563zm4.876-13.529a6.846 6.846 0 0 0-5.056-1.962 11.527 11.527 0 0 0-2.64.351V28.6a13.79 13.79 0 0 0 2.74.34 6.707 6.707 0 0 0 4.956-1.975 7.234 7.234 0 0 0 1.973-5.35 7.22 7.22 0 0 0-1.97-5.36zm-48.523-1.624a3.483 3.483 0 0 0-.273 1.744v6.654a11.129 11.129 0 0 1-.518 3.829 4.9 4.9 0 0 1-2.048 2.339 7.686 7.686 0 0 1-4.153.974 8.164 8.164 0 0 1-4.335-.934 5.092 5.092 0 0 1-2.1-2.5 13.2 13.2 0 0 1-.412-4.044v-6.418a3.03 3.03 0 0 0-.445-1.983 1.887 1.887 0 0 0-1.431-.471h-.657v-.45h7.543v.45h-.668a1.773 1.773 0 0 0-1.546.64 3.388 3.388 0 0 0-.322 1.814v7.154a14.9 14.9 0 0 0 .187 2.19 4.49 4.49 0 0 0 .676 1.924 3.594 3.594 0 0 0 1.409 1.137 5.107 5.107 0 0 0 2.258.45 6.555 6.555 0 0 0 3.063-.7 3.861 3.861 0 0 0 1.849-1.8 9.834 9.834 0 0 0 .5-3.709v-6.646a3.22 3.22 0 0 0-.36-1.921 1.967 1.967 0 0 0-1.494-.533h-.659v-.45h6.182v.45h-.659a1.8 1.8 0 0 0-1.584.81zM88.125 28.636h.23c6.061 1.141 12.65 3.158 18.976 4.912 3.074 1.4 11.6 4.386 14.231 7.9a6.09 6.09 0 0 1 .879.351c.878 2.018 2.108 1.93 1.757 5.79-4.481-.526-7.38-3.86-10.191-5.965a1.25 1.25 0 0 0-.527-.176c-5.095-4.3-16.691-3.509-19.854-6.667-11.772-1.491-18.536 0-28.99 2.632-2.2.7-4.392 1.491-6.5 2.281-6.15 4.206-6.15 4.206-15.462 11.751-7.291 11.4-7.291 11.4-8.17 12.018-4.217 8.246-6.413 17.106-7.818 26.756l-.527 8.948c-.966 4.386-.527 8.07-.175 12.983v.175c-.088.965-.7 1.492 0 2.983.615 8.86.615 8.86 1.581 13.86a15.461 15.461 0 0 0 .352 1.755 17.014 17.014 0 0 0 .175 2.1c.527 2.632 1.142 5.264 1.757 7.9 2.284 5.7 2.723 11.843 6.149 17.9 1.406 4.123 2.811 8.334 4.217 12.545.7.438.7.438 5.183 9.123 2.635.877 3.25 8.334 6.413 9.387 4.392 7.193 10.015 15.176 15.11 22.983 5.095 5.088 2.46 6.667-3.338 12.457-7.818 5.176-7.379-1.579-12.562-5.439-1.669-3.333-3.25-6.667-4.832-10h-.7c-.966-2.018-4.129-9.825-5.271-9.825-11.42-23.51-11.42-23.51-13.88-29.476-.088-1.491-.176-2.983-.176-4.386a12.415 12.415 0 0 0-1.581-.7c-.176-.7-.351-1.316-.527-1.93-2.2-1.4-2.46-7.544-2.548-9.386A342.59 342.59 0 0 1 15 115.045c.527-8.071 1.142-16.054 1.757-24.037 1.845-7.544 4.393-14.825 6.589-21.843h.7v-.7a.189.189 0 0 1 .176-.176c5.626-10.879 10.985-18.16 20.56-25.968 1.581-.7 1.581-.7 3.514-2.632a4.973 4.973 0 0 1 1.054-.351c6.588-5.088 14.495-7.193 22.665-9.65 4.481-.614 4.481-.614 5.447-1.053h.619a7.794 7.794 0 0 1-1.571-1.505 8.306 8.306 0 0 1-1.776-5.3 9.018 9.018 0 0 1 1.166-4.513 8.239 8.239 0 0 1 3.225-3.189A9.164 9.164 0 0 1 83.614 13a8.7 8.7 0 0 1 3.734.866 2.123 2.123 0 0 0 .774.269.883.883 0 0 0 .6-.231A1.848 1.848 0 0 0 89.2 13h.45l.4 5.576h-.4a6.989 6.989 0 0 0-2.275-3.606 5.783 5.783 0 0 0-3.553-1.1 6.065 6.065 0 0 0-3.143.832 5.553 5.553 0 0 0-2.2 2.643 11.175 11.175 0 0 0-.8 4.516 9.056 9.056 0 0 0 .761 3.861 5.465 5.465 0 0 0 2.285 2.5 6.283 6.283 0 0 0 .89.414h4.968a5.721 5.721 0 0 0 .622-.228 9.59 9.59 0 0 0 2.855-2.716l.4.241a9.512 9.512 0 0 1-2.335 2.703zm-29.914.7a2.722 2.722 0 0 0 1.411-.329.821.821 0 0 0 .369-.678 4.828 4.828 0 0 0-.519-1.682l-1.054-2.359h-6.757l-1.182 2.592a3.856 3.856 0 0 0-.439 1.428.815.815 0 0 0 .378.656 3.477 3.477 0 0 0 1.642.372v.447h-5.5v-.446a3.074 3.074 0 0 0 1.416-.475 7.249 7.249 0 0 0 1.458-2.362L55.576 13h.448L62.1 26.648a6.086 6.086 0 0 0 1.33 2.136 2.835 2.835 0 0 0 1.669.553v.447h-6.888v-.447zM55.1 16.763l-3.036 6.63h6zm-17.482-1.47a2.509 2.509 0 0 0-1.094-.781 6.173 6.173 0 0 0-2.011-.244h-3.852v6.452h3.175a2.374 2.374 0 0 0 1.6-.454 2.912 2.912 0 0 0 .676-1.8h.474v5.552h-.469a3.063 3.063 0 0 0-.263-1.4 1.586 1.586 0 0 0-.7-.672 3 3 0 0 0-1.318-.224h-3.175v5.158a5.038 5.038 0 0 0 .166 1.643 1.1 1.1 0 0 0 .541.521 2.553 2.553 0 0 0 1.183.292h.632v.447h-7.492v-.446h.616a1.922 1.922 0 0 0 1.572-.594 3.471 3.471 0 0 0 .308-1.863v-10.6a5.163 5.163 0 0 0-.167-1.645 1.13 1.13 0 0 0-.527-.52 2.5 2.5 0 0 0-1.186-.29h-.616v-.45h12.988l.167 3.605h-.453a4.745 4.745 0 0 0-.779-1.687zm8.074 292.717l13.131-28.751h10.415v1.009h-1.279a3.771 3.771 0 0 0-3.334 1.406c-.4.581-.6 1.895-.6 3.956v24.009c0 2.256.259 3.661.768 4.226A4.011 4.011 0 0 0 67.959 315h1.279v1H53.605v-1h1.306a3.705 3.705 0 0 0 3.316-1.415c.4-.573.592-1.9.592-3.948v-24.553L44.631 316h-.9l-14.213-30.916v24.554c0 2.256.241 3.661.732 4.226A4.031 4.031 0 0 0 33.426 315h1.3v1h-12.8v-1h1.3a3.75 3.75 0 0 0 3.316-1.415c.4-.573.592-1.9.592-3.948v-24.008a8.4 8.4 0 0 0-.538-3.522 3.023 3.023 0 0 0-1.4-1.313 7.532 7.532 0 0 0-3.269-.527v-1.009h10.416zm29.806 3.256l8.466-19.494h.617l8.376 19.7a8.894 8.894 0 0 0 1.835 3.083 3.817 3.817 0 0 0 2.3.8V316h-9.5v-.644a3.6 3.6 0 0 0 1.944-.478 1.191 1.191 0 0 0 .509-.977 7.212 7.212 0 0 0-.715-2.427l-1.453-3.406h-9.313l-1.628 3.74a5.736 5.736 0 0 0-.606 2.063 1.207 1.207 0 0 0 .521.949 4.668 4.668 0 0 0 2.265.536V316h-7.575v-.644a4.152 4.152 0 0 0 1.948-.685 10.548 10.548 0 0 0 2.005-3.406zm11.887-4.491L83.3 297.2l-4.184 9.571h8.265zm13.977 7.669a5.184 5.184 0 0 0 .394-2.546v-18.106h-2.898a8.276 8.276 0 0 0-2.391.244 3.278 3.278 0 0 0-1.582 1.277 5.159 5.159 0 0 0-.781 2.553h-.671l.283-5.559h19.636l.268 5.559h-.679a6.425 6.425 0 0 0-.533-2.1 3.539 3.539 0 0 0-1.46-1.491 5.15 5.15 0 0 0-2.4-.483h-3.391V311.9a4.828 4.828 0 0 0 .478 2.725 2.694 2.694 0 0 0 2.077.734h.836V316h-10.2v-.644h.852a2.445 2.445 0 0 0 2.158-.913zm31.58-16.947h-.7a8.049 8.049 0 0 0-.823-2.564 2.827 2.827 0 0 0-1.338-1.069 8.224 8.224 0 0 0-2.5-.261h-6.6v9.362h5.287a4.37 4.37 0 0 0 2.748-.608 3.9 3.9 0 0 0 1.029-2.833h.655v8.247h-.655a8.943 8.943 0 0 0-.5-2.217 2.226 2.226 0 0 0-1.048-.962 5.42 5.42 0 0 0-2.234-.351h-5.287v7.812a7.436 7.436 0 0 0 .139 1.915 1.138 1.138 0 0 0 .5.541 3.108 3.108 0 0 0 1.349.2h4.081a10.988 10.988 0 0 0 2.961-.28 4.389 4.389 0 0 0 1.775-1.1 13.446 13.446 0 0 0 2.252-3.269h.709l-2.07 5.94H114.13v-.644h.854a3.417 3.417 0 0 0 1.612-.4 1.485 1.485 0 0 0 .775-.836 8.3 8.3 0 0 0 .2-2.289v-15.397a5.015 5.015 0 0 0-.462-2.779 2.759 2.759 0 0 0-2.125-.7h-.854v-.65h18.542zm2.328-39.373c3.075-2.807 12.212-15.352 16.78-6.228 0 5.263-13.178 13.772-17.834 14.65-7.032-3.861-4.396-5.616 1.05-8.423zm14.212 34.739a6.459 6.459 0 0 1 3.087 2.021 5.256 5.256 0 0 1 1.266 3.524 5.464 5.464 0 0 1-1.448 3.793 8.187 8.187 0 0 1-4.474 2.266l4.964 6.8a12.252 12.252 0 0 0 2.925 3.112 7.6 7.6 0 0 0 3.2.979V316h-6.425l-8.144-11.075c-.6.018-1.09.031-1.472.031-.151 0-.314 0-.5-.007s-.356-.011-.551-.024v6.883a4.823 4.823 0 0 0 .5 2.779 2.559 2.559 0 0 0 2.022.769h.945V316h-10.311v-.644h.9a2.432 2.432 0 0 0 2.18-.979 5.452 5.452 0 0 0 .376-2.569V296.5a4.792 4.792 0 0 0-.5-2.772 2.633 2.633 0 0 0-2.06-.77h-.9v-.65h8.761a20.971 20.971 0 0 1 5.655.554zm-7.57 10.961c.231 0 .425 0 .588.006s.3.012.4.012a7.9 7.9 0 0 0 5.191-1.468 4.657 4.657 0 0 0 1.749-3.738 4.847 4.847 0 0 0-1.41-3.608 5.094 5.094 0 0 0-3.737-1.39 16.118 16.118 0 0 0-2.785.333v9.853zM225.487 154.7c.966 7.72-5.183 8.071-10.805 8.334-1.318-.877-.967-1.316-1.055-2.106 3.073-3.074 6.853-6.758 11.86-6.228zm-50.368 125.5v-.934h.724a8.674 8.674 0 0 0 .624-1.046c3.6-.351 8.17-5.088 10.806-7.983a7.39 7.39 0 0 1 1.054-.7c.527-1.316.7-1.228 1.757-1.754 5.095-5.527 11.6-12.369 15.637-18.6 4.305-1.4 14.144-17.457 16.516-21.756h.7c1.055-1.666.791-2.631 3.075-2.456 0 .351-11.6 29.388-14.759 30.441-4.04 5.789-5.622 7.105-9.751 12.719h-.351v.527c-5.535 6.755-5.535 6.755-7.907 9.123a6.783 6.783 0 0 0 .352.965c-.229.2-.451.393-.679.589a28.441 28.441 0 0 1 9.723 1.8 15 15 0 0 1 6.918 6.232 19.272 19.272 0 0 1 2.622 10.081 18.367 18.367 0 0 1-4.668 12.817Q202.276 316 191.557 316h-16.438v-1h1.381a3.641 3.641 0 0 0 3.308-1.5c.4-.591.6-1.932.6-4v-20.1c-1.057.518-1.1.6-1.217.834h-6.325c-5.18-5.176-.739-6.571 2.253-10.042zm16.272 33.913a13.718 13.718 0 0 0 10.446-4.421q4.152-4.412 4.158-11.977 0-7.6-4.158-11.994a14 14 0 0 0-10.659-4.392c-.189 0-.391.015-.586.022q-2.5 2.171-4.98 4.372v27.632a27.576 27.576 0 0 0 5.779.75zm48.7-16.609h-.7a8.049 8.049 0 0 0-.823-2.564 2.831 2.831 0 0 0-1.338-1.069 8.228 8.228 0 0 0-2.5-.261h-6.6v9.362h5.286a4.376 4.376 0 0 0 2.749-.608 3.9 3.9 0 0 0 1.028-2.833h.656v8.247h-.656a8.943 8.943 0 0 0-.5-2.217 2.216 2.216 0 0 0-1.048-.962 5.417 5.417 0 0 0-2.234-.351h-5.281v7.812a7.367 7.367 0 0 0 .14 1.915 1.124 1.124 0 0 0 .5.541 3.112 3.112 0 0 0 1.351.2h4.08a10.985 10.985 0 0 0 2.96-.28 4.382 4.382 0 0 0 1.775-1.1 13.445 13.445 0 0 0 2.254-3.269h.707L239.822 316h-18.541v-.644h.854a3.416 3.416 0 0 0 1.611-.4 1.482 1.482 0 0 0 .775-.836 8.256 8.256 0 0 0 .2-2.289v-15.397a5.027 5.027 0 0 0-.461-2.779 2.759 2.759 0 0 0-2.125-.7h-.854v-.65h18.541zm12.717-4.539h-.872a2.571 2.571 0 0 0-2.143.853 5.063 5.063 0 0 0-.447 2.689v15.309a7.763 7.763 0 0 0 .23 2.373 1.585 1.585 0 0 0 .744.751 3.306 3.306 0 0 0 1.616.424h.872V316H242.5v-.644h.854a2.575 2.575 0 0 0 2.161-.858 5.233 5.233 0 0 0 .43-2.69V296.5a7.763 7.763 0 0 0-.23-2.373 1.6 1.6 0 0 0-.726-.751 3.4 3.4 0 0 0-1.635-.418h-.854v-.65h10.311v.65z" style="fill-rule:evenodd"/></svg>